<svg width="45" height="46" viewBox="0 0 45 46" fill="none" xmlns="http://www.w3.org/2000/svg">
<path d="M38.6719 22.9999C38.6719 24.5047 37.452 25.7245 35.9473 25.7245H26.543L22.5 17.5498L26.8638 9.99164C27.6162 8.68854 29.2824 8.24204 30.5856 8.99432L30.5861 8.99462C31.8893 9.74694 32.3359 11.4133 31.5835 12.7165L27.2197 20.2753H35.9473C37.452 20.2753 38.6719 21.4951 38.6719 22.9999Z" fill="#1A73E8"/>
<path d="M30.5898 37.0053L30.5892 37.0056C29.2861 37.7579 27.6199 37.3114 26.8675 36.0083L22.5037 28.4501L18.1398 36.0083C17.3875 37.3114 15.7212 37.7579 14.4181 37.0056L14.4176 37.0053C13.1143 36.253 12.6678 34.5866 13.4201 33.2834L17.7839 25.7246L22.5037 25.5488L27.2234 25.7246L31.5872 33.2834C32.3395 34.5866 31.893 36.253 30.5898 37.0053Z" fill="#EA4335"/>
<path d="M22.5037 17.5498L21.2732 20.8905L17.7839 20.2753L13.4201 12.7165C12.6678 11.4133 13.1143 9.74694 14.4176 8.99462L14.4181 8.99432C15.7212 8.24204 17.3875 8.68854 18.1398 9.99164L22.5037 17.5498Z" fill="#FBBC04"/>
<path d="M21.7969 20.2754L18.6328 25.7246H9.05273C7.54797 25.7246 6.32812 24.5048 6.32812 23C6.32812 21.4952 7.54797 20.2754 9.05273 20.2754H21.7969Z" fill="#34A853"/>
<path d="M27.2207 25.7245H17.7812L22.501 17.5498L27.2207 25.7245Z" fill="#185DB7"/>
</svg>
